# xmcd
#
# Track frame offsets:
#	150
#	25390
#	42790
#	60045
#	72100
#	90150
#	122862
#	135840
#	152005
#	172612
#	188797
#	209612
#
# Disc length: 3052 seconds
#
# Revision: 3
# Processed by: cddbd v1.5.2PL0 Copyright (c) Steve Scherf et al.
# Submitted via: EasyCDDAExtractor 10.0.4.1
#
DISCID=8b0bea0c
DTITLE=Orquesta Aragon - Quien sabe sabe
DYEAR=1995
DGENRE=Latin
TTITLE0=El charlatan
TTITLE1=No me molesto
TTITLE2=Yaye boy
TTITLE3=Los carboncitos
TTITLE4=Si sabes bailar mi son
TTITLE5=Hay que saber comenzar
TTITLE6=Quen sabe sabe
TTITLE7=Patricia
TTITLE8=Sin clave y bongo no hay son
TTITLE9=Cubita Cubera
TTITLE10=Si me faltara el carnaval
TTITLE11=Separala tambien
EXTD=\nYEAR: 1995  ID3G:  86
EXTT0=
EXTT1=
EXTT2=
EXTT3=
EXTT4=
EXTT5=
EXTT6=
EXTT7=
EXTT8=
EXTT9=
EXTT10=
EXTT11=
PLAYORDER=
